<?xml version="1.0" encoding="iso-8859-1"?>
<!-- Generator: Adobe Illustrator 19.0.0, SVG Export Plug-In . SVG Version: 6.00 Build 0)  -->
<svg version="1.1" id="Layer_1" xmlns="http://www.w3.org/2000/svg" xmlns:xlink="http://www.w3.org/1999/xlink" x="0px" y="0px"
	 viewBox="0 0 512 512" style="enable-background:new 0 0 512 512;" xml:space="preserve">
<g>
	<g>
		<path d="M344.142,338.043V285.11v-67.791V201.98h7.37c5.523,0,10-4.477,10-10v-43.687c0-5.523-4.477-10-10-10h-22.801
			c9.961-14.515,15.428-31.809,15.428-49.809C344.139,39.694,304.6,0,256,0c-48.6,0-88.139,39.694-88.139,88.485
			c0,18,5.467,35.294,15.428,49.809h-22.801c-5.522,0-10,4.477-10,10v43.687c0,5.523,4.478,10,10,10h7.37v50.898v67.791v52.934
			v67.79v6.574H161c-5.523,0-10,4.477-10,10V502c0,5.523,4.477,10,10,10h190.023c2.653,0,5.197-1.054,7.073-2.931
			c1.875-1.876,2.928-4.421,2.927-7.075L361,457.962c-0.003-5.521-4.479-9.995-10-9.995h-6.858v-42.133V338.043z M256,20
			c37.571,0,68.139,30.722,68.139,68.485c0,18.966-7.853,36.925-21.662,49.809h-92.953c-13.81-12.884-21.663-30.843-21.663-49.809
			C187.861,50.722,218.429,20,256,20z M171,492v-24.033h6.858h36.36h67.79h52.133h6.863L341.019,492H171z M242.899,201.981h39.505
			l-94.546,94.546v-39.506L242.899,201.981z M187.858,228.735V201.98h26.756L187.858,228.735z M310.69,201.98h13.452v11.197
			L187.858,349.46v-24.649L310.69,201.98z M277.867,447.966H238.36l85.782-85.781v39.506L277.867,447.966z M324.142,429.976v17.991
			h-17.991L324.142,429.976z M324.141,241.461v39.506L187.858,417.251v-39.506L324.141,241.461z M324.141,309.252v24.649
			L210.077,447.967h-22.219v-2.432L324.141,309.252z M341.511,181.981h-7.37h-27.595h-67.79h-60.898h-7.37v-23.687h35.247h100.529
			h35.247V181.981z"/>
	</g>
</g>
<g>
</g>
<g>
</g>
<g>
</g>
<g>
</g>
<g>
</g>
<g>
</g>
<g>
</g>
<g>
</g>
<g>
</g>
<g>
</g>
<g>
</g>
<g>
</g>
<g>
</g>
<g>
</g>
<g>
</g>
</svg>
